<?xml version="1.0" standalone="no"?>
<!DOCTYPE svg PUBLIC "-//W3C//DTD SVG 1.1//EN" "http://www.w3.org/Graphics/SVG/1.1/DTD/svg11.dtd" >
<svg xmlns="http://www.w3.org/2000/svg">
<metadata>
Created by FontForge 20120731 at Thu May 11 09:41:58 2017
 By admin
</metadata>
<defs>
<font id="iconfont" horiz-adv-x="1024" >
  <font-face 
    font-family="iconfont"
    font-weight="500"
    font-stretch="normal"
    units-per-em="1024"
    panose-1="2 0 6 3 0 0 0 0 0 0"
    ascent="896"
    descent="-128"
    x-height="792"
    bbox="-0.4 -212 1140 896"
    underline-thickness="0"
    underline-position="0"
    unicode-range="U+0078-E9A6"
  />
<missing-glyph 
 />
    <glyph glyph-name=".notdef" 
 />
    <glyph glyph-name=".notdef" 
 />
    <glyph glyph-name=".null" horiz-adv-x="0" 
 />
    <glyph glyph-name="nonmarkingreturn" horiz-adv-x="341" 
 />
    <glyph glyph-name="x" unicode="x" horiz-adv-x="1001" 
d="M281 543q-27 -1 -53 -1h-83q-18 0 -36.5 -6t-32.5 -18.5t-23 -32t-9 -45.5v-76h912v41q0 16 -0.5 30t-0.5 18q0 13 -5 29t-17 29.5t-31.5 22.5t-49.5 9h-133v-97h-438v97zM955 310v-52q0 -23 0.5 -52t0.5 -58t-10.5 -47.5t-26 -30t-33 -16t-31.5 -4.5q-14 -1 -29.5 -0.5
t-29.5 0.5h-32l-45 128h-439l-44 -128h-29h-34q-20 0 -45 1q-25 0 -41 9.5t-25.5 23t-13.5 29.5t-4 30v167h911zM163 247q-12 0 -21 -8.5t-9 -21.5t9 -21.5t21 -8.5q13 0 22 8.5t9 21.5t-9 21.5t-22 8.5zM316 123q-8 -26 -14 -48q-5 -19 -10.5 -37t-7.5 -25t-3 -15t1 -14.5
t9.5 -10.5t21.5 -4h37h67h81h80h64h36q23 0 34 12t2 38q-5 13 -9.5 30.5t-9.5 34.5q-5 19 -11 39h-368zM336 498v228q0 11 2.5 23t10 21.5t20.5 15.5t34 6h188q31 0 51.5 -14.5t20.5 -52.5v-227h-327z" />
    <glyph glyph-name="dingwei" unicode="&#xe600;" 
d="M512.5 748q-91.5 0 -169 -45t-122.5 -122.5t-45 -168.5q0 -52 34.5 -128.5t84 -149.5t99 -137.5t84 -105t34.5 -39.5q14 16 36.5 42t80.5 100.5t102.5 141.5t81 145.5t36.5 130.5q0 91 -45 168.5t-122.5 122.5t-169 45zM714 412.5q0 -83.5 -59 -142.5t-142.5 -59t-143 59
t-59.5 142.5t59.5 142.5t143 59t142.5 -59t59 -142.5z" />
    <glyph glyph-name="gouwuche" unicode="&#xe607;" 
d="M920 590h-679l-12 97q-1 12 -10.5 20t-21.5 8h-7q-4 0 -7 -1h-83q-15 0 -25 -9t-10 -22.5t10 -22.5t25 -9h69l67 -548q1 -12 10.5 -20.5t21.5 -8.5h7q4 0 7 1h549q15 0 25 9.5t10 22.5t-10 22.5t-25 9.5h-535l-8 67h545q12 0 22.5 8t12.5 20l74 327q3 12 -3.5 20.5
t-18.5 8.5zM295 -66q0 -32 22.5 -54.5t54.5 -22.5t55 22.5t23 54.5t-23 55t-55 23t-54.5 -23t-22.5 -55zM679 -66q0 -32 22.5 -54.5t54.5 -22.5t55 22.5t23 54.5t-23 55t-55 23t-54.5 -23t-22.5 -55z" />
    <glyph glyph-name="shoucang" unicode="&#xe601;" 
d="M510 753q15 0 21 -12l97 -198q9 -18 29 -21l224 -33q14 -2 18 -14t-5 -20l-164 -161q-14 -14 -11 -33l38 -222q2 -13 -9 -20q-6 -4 -13 -4q-6 0 -12 3l-195 102q-9 5 -18.5 5t-18.5 -5l-195 -102q-5 -3 -11 -3q-8 0 -14 4q-11 7 -9 20l38 222q3 19 -11 33l-164 161
q-9 8 -5 20t18 14l224 33q20 3 29 21l98 198q6 12 21 12zM510 791q-18 0 -33.5 -9t-23.5 -25l-97 -197l-223 -33q-18 -2 -31 -13t-19 -27q-12 -34 14 -60l164 -160l-38 -222q-6 -36 26 -58q16 -10 36 -10q15 0 30 7l195 103l195 -103q14 -7 30 -7q19 0 35 10q32 22 26 58
l-38 222l164 160q26 26 14 60q-5 16 -18.5 27t-30.5 13l-224 33l-97 197q-8 16 -23 25t-33 9v0z" />
    <glyph glyph-name="rongyu" unicode="&#xe60a;" 
d="M958 532q0 -85 -55 -134.5t-144 -58.5q-59 -136 -152 -189l-23 -182h5q35 0 62 -22t34 -56h21q8 0 13.5 -5.5t5.5 -13.5t-5.5 -14t-13.5 -6h-389q-8 0 -13.5 6t-5.5 14t5.5 13.5t13.5 5.5h21q7 34 34 56t62 22h5l-23 182q-93 53 -152 189q-89 9 -144.5 58.5t-55.5 134.5
v31q0 26 -0.5 36.5t3.5 23.5t7 16t16 7t23.5 3.5t36.5 -0.5h31h20q0 1 -0.5 8t-0.5 11q0 22 2 51q-2 4 -2 8t3 9q0 2 0.5 5t0.5 5h16h23h537h23h16q0 -2 0.5 -5t0.5 -5q3 -5 3 -9t-2 -8q2 -29 2 -51q0 -4 -0.5 -11t-0.5 -8h20h30q27 0 37.5 0.5t23.5 -3.5t15.5 -7t6.5 -16
t4 -23.5t-1 -36.5v-31zM434 -71q-19 0 -34 -10.5t-21 -28.5h265q-6 18 -21 28.5t-34 10.5h-155zM550 124h-77l13 -156h51zM182 610h-31h-21q-17 0 -26 -1q-1 -10 0 -46v-31q0 -65 39 -103t104 -49q-37 105 -45 230h-20zM783 707h-543q-1 -21 -1 -39q0 -134 37 -251
t100 -185.5t135.5 -68.5t135.5 68.5t100 185.5t37 251q0 18 -1 39zM918 609q-8 1 -26 1h-20h-31h-20q-8 -125 -45 -230q65 11 104 49.5t39 102.5v31q0 36 -1 46z" />
    <glyph glyph-name="duigou" unicode="&#xe65d;" 
d="M356 321l95 -184q3 8 9 22t26.5 55t43.5 80.5t59 92t73.5 96t86.5 85.5t99 68q-2 -19 -6.5 -63t-6 -67.5t4 -60.5t19.5 -70q-49 -11 -132 -89.5t-155 -171t-110 -160.5q-74 92 -156.5 159t-145.5 90z" />
    <glyph glyph-name="soucangshixin" unicode="&#xe60e;" 
d="M210 68q0 40 11 98q9 43 24 94q1 3 -1 5q-43 32 -75 62q-46 43 -70 76q-19 27 -25 52q-12 44 28 73q22 16 61 28q30 8 72 14q23 3 49 5q39 2 55 2q1 0 3 0.5t3 0.5q3 0 4 3q13 37 29 74q30 68 60 108q20 27 42 39q36 21 71 -2q22 -15 44 -45q26 -36 52 -95q16 -36 31 -79
q1 -3 4 -3q4 -1 11 -1q20 0 59 -3q48 -4 86 -12q54 -12 85 -32q22 -15 29 -35q8 -23 -3 -53q-9 -25 -35 -57q-15 -19 -35 -38q-30 -30 -61 -55q-28 -22 -35 -27q-2 -2 -1 -5q15 -52 24 -94q5 -25 9 -53q3 -29 2 -60q-2 -36 -16 -59q-16 -26 -47 -29q-33 -4 -81.5 14
t-114.5 60q-27 17 -41 27q-3 3 -7 0q-39 -26 -68 -44q-62 -36 -107 -50q-30 -9 -52 -8q-49 1 -65 46q-9 25 -8 58v0z" />
    <glyph glyph-name="qrcode" unicode="&#xe61a;" 
d="M543 555v-293h-68v293h68zM545 775v-148h-68v148h68zM544 169v-147h-68v147h68zM518 366h-147v67h147v-67zM268 365h-147v67h147v-67zM900 366h-147v67h147v-67zM674 317v-165h-68v165h68zM771 249h-165v68h165v-68zM901 317v-295h-295v67h223v228h72zM121 775h295v-296
h-68v223h-227v73zM416 479h-295v296h68v-223h227v-73zM121 317h295v-295h-68v222h-227v73zM416 22h-295v295h68v-223h227v-72v0zM606 775h295v-296h-68v223h-227v73zM901 479h-295v296h68v-223h227v-73z" />
    <glyph glyph-name="gongjijin" unicode="&#xe603;" 
d="M426 509q-70 0 -133 12t-105 37.5t-42 59.5t42 59.5t105 37.5t133.5 12t133 -12t105 -37.5t42.5 -59.5t-42.5 -59.5t-105 -37.5t-133.5 -12v0zM426 693q-54 0 -102 -7t-79 -18.5t-48.5 -24.5t-17.5 -25t17.5 -25t48.5 -24.5t79 -18.5t102.5 -7t102.5 7t79 18.5t48.5 24.5
t17.5 25t-17.5 25t-48.5 24.5t-79 18.5t-103 7v0zM426 509q-70 0 -133 12t-105 37.5t-42 59.5q0 7 4.5 12t11.5 5t12 -5t5 -12q0 -12 17.5 -25t48.5 -24.5t79 -18.5t102.5 -7t102.5 7t79 18.5t48.5 24.5t17.5 25q0 7 5 12t11.5 5t11.5 -5t5 -12q0 -34 -42.5 -59.5
t-105 -37.5t-133.5 -12v0zM426 405q-70 0 -133 12t-105 37.5t-42 59.5q0 7 4.5 12t11.5 5t12 -5t5 -12q0 -12 17.5 -25t48.5 -24.5t79 -18.5t102 -7q23 0 45 1q7 1 12.5 -4t6 -12t-4.5 -12t-11 -6q-23 -1 -48 -1v0zM162 497q-7 0 -11.5 5t-4.5 12v103q0 7 4.5 11.5t11.5 4.5
t12 -4.5t5 -11.5v-103q0 -7 -5 -12t-12 -5v0zM691 508q-7 0 -12 5t-5 12v92q0 7 5 11.5t12 4.5t11.5 -4.5t4.5 -11.5v-92q0 -7 -4.5 -12t-11.5 -5v0zM407 205v0q-94 3 -162.5 24.5t-89.5 54.5q-4 6 -2.5 13t7 10.5t12.5 2t11 -6.5q15 -24 76.5 -43t147.5 -21q7 -1 12 -6
t5 -11.5t-5 -11.5t-12 -5v0zM439 101q-74 0 -140 12.5t-109.5 38t-43.5 58.5q0 7 4.5 11.5t11.5 4.5t12 -4.5t5 -11.5q0 -12 19 -25t52 -24t83 -18.5t106 -7.5q7 0 12 -5t5 -12t-5 -12t-12 -5v0zM349 368q-70 0 -133 12t-105.5 37.5t-42.5 59.5q0 49 87 80q7 2 13.5 -1
t8.5 -9.5t-1 -12.5t-9 -8q-30 -11 -47.5 -24t-17.5 -25t17.5 -25.5t48 -24.5t78.5 -18.5t103 -7.5q46 0 88 6q7 1 12.5 -3.5t6.5 -11.5t-3.5 -12.5t-11.5 -6.5q-44 -5 -92 -5v0zM349 264q-70 0 -133 12t-105.5 37.5t-42.5 59.5q0 6 5 11t12 5t12 -4.5t5 -11.5
q0 -12 17.5 -25.5t48 -24.5t78.5 -18.5t103 -7.5q30 0 60 3q7 0 12 -4.5t5.5 -11.5t-4 -12t-10.5 -6q-32 -2 -63 -2v0zM85 356q-7 0 -12 5t-5 12v102q0 7 5 12t12 5t12 -5t5 -12v-102q0 -7 -5 -12t-12 -5v0zM162 184q-7 0 -11.5 4.5t-4.5 11.5v91q0 7 4.5 11.5t11.5 4.5
t12 -4.5t5 -11.5v-91q0 -7 -5 -11.5t-12 -4.5v0zM675 -27q-116 0 -198.5 82.5t-82.5 198.5t82.5 198.5t198.5 82.5t198.5 -82.5t82.5 -198.5t-82.5 -198.5t-198.5 -82.5v0zM675 501q-102 0 -174.5 -72.5t-72.5 -175t72.5 -175t175 -72.5t175 72.5t72.5 175t-72.5 175
t-175.5 72.5v0zM661 132q-21 2 -38 10t-30 21l9 14q2 2 4 3t5 1t7 -3q3 -3 10 -7q6 -4 14 -9q9 -3 20 -5l7 91q-13 4 -24 8q-11 5 -20.5 12t-15 18.5t-5.5 27.5q0 13 5 25t14 21t23 15t32 6l1 25q1 4 3 6.5t6 2.5h11l-2 -34q18 -3 31 -10t23 -17l-7 -11q-3 -5 -8 -5
q-2 0 -6 2q-7 4 -8 5q-5 3 -11.5 6t-15.5 4l-5 -83q11 -4 24 -8q12 -5 21.5 -12t15.5 -17.5t6 -26.5q0 -15 -5 -29t-15 -24t-24.5 -16.5t-32.5 -6.5l-2 -31q0 -3 -3 -6q-2 -2 -6 -2h-11zM633 317q0 -8 3 -14t8 -10.5t12 -8.5q8 -4 15 -6l5 77q-11 -1 -19.5 -4.5t-13.5 -8.5
t-8 -11q-2 -6 -2 -14zM728 203q0 9 -3 15t-8.5 10.5t-13.5 8.5q-7 3 -15 6l-6 -86q11 1 19.5 5t14.5 10t9 14t3 17z" />
    <glyph glyph-name="zengjia" unicode="&#xe69a;" 
d="M569 357v455h-114v-455h-455v-114h455v-455h114v455h455v114h-455v0z" />
    <glyph glyph-name="more" unicode="&#xe60b;" 
d="M69 288q0 -45 31.5 -76.5t76.5 -31.5t76.5 31.5t31.5 76.5t-31.5 76.5t-76.5 31.5t-76.5 -31.5t-31.5 -76.5v0zM404 288q0 -45 31.5 -76.5t76.5 -31.5t76.5 31.5t31.5 76.5t-31.5 76.5t-76.5 31.5t-76.5 -31.5t-31.5 -76.5zM739 288v0q0 -45 31.5 -76.5t76.5 -31.5
t76.5 31.5t31.5 76.5v0q0 45 -31.5 76.5t-76.5 31.5t-76.5 -31.5t-31.5 -76.5z" />
    <glyph glyph-name="unie60b" unicode="&#xe6a4;" 
d="M933 549q-11 3 -28 5t-47 3.5t-51 2t-70 1.5t-75 2q8 37 8 105q0 84 -50.5 150t-107.5 66q-39 0 -67 -28t-29 -67q0 -28 -5.5 -56.5t-18 -62t-39.5 -63.5t-65 -50q-22 -12 -34 -17l2 -2q-30 26 -64 26h-96q-40 0 -68 -28t-28 -68v-512q0 -40 28 -68t68 -28h96q28 0 51 15
t34 40h2t3.5 -1t4.5 -1h0.5h0.5q36 -9 130 -31q96 -22 191 -22h175q80 0 114 62q8 16 14 34q8 27 1 56q34 24 53 83q15 49 0 87q33 32 42 89q7 40 -12 76q26 29 27 69l1 7v16q0 34 -23.5 65.5t-67.5 44.5zM224 -44q0 -13 -9.5 -22.5t-22.5 -9.5h-96q-13 0 -22.5 9.5
t-9.5 22.5v512q0 13 9.5 22.5t22.5 9.5h96q13 0 22.5 -9.5t9.5 -22.5v-512zM959 419q-2 -47 -63 -47h-64q-7 0 -11.5 -4.5t-4.5 -11.5t4.5 -11.5t11.5 -4.5h62q32 0 43 -19.5t8 -39.5q-11 -69 -69 -69h-76q-7 0 -11.5 -4.5t-4.5 -11.5t4.5 -11.5t11.5 -4.5h63
q25 0 36.5 -11.5t9.5 -26t-4 -28.5q-1 -1 -2 -4q-5 -15 -8.5 -22.5t-12 -17.5t-24 -14t-38.5 -4h-52q-7 0 -11.5 -4.5t-4.5 -11.5t4.5 -11.5t11.5 -4.5h50q23 0 30 -16t3 -29q-2 -8 -9 -23q-15 -28 -58 -28h-175q-88 0 -177 20q-126 29 -149 36q-3 0 -7.5 1.5t-12 9
t-7.5 17.5v442q0 26 25 33q1 1 3.5 1.5t3.5 1.5q52 21 91 56.5t60 77t30.5 83t10.5 85.5q0 12 9 22t23 10q28 0 61 -46.5t33 -105.5q0 -56 -5 -82t-25 -86q152 0 226.5 -2t87.5 -3.5t32 -6.5q38 -11 38 -49q0 -1 -1 -20zM144 52q-20 0 -34 -14t-14 -34t14 -34t34 -14t34 14
t14 34t-14 34t-34 14zM144 -12q-7 0 -11.5 4.5t-4.5 11.5t4.5 11.5t11.5 4.5t11.5 -4.5t4.5 -11.5t-4.5 -11.5t-11.5 -4.5z" />
    <glyph glyph-name="kuajingzhifuiconjibenxinxi" unicode="&#xe604;" horiz-adv-x="1025" 
d="M619 122q-28 11 -44 25q-15 14 -22.5 30t-8.5 31t2 31q4 25 16 35q11 10 31 26q8 7 15 20q6 12 11 25q5 15 10 32q10 3 19 11q8 7 15 20q6 12 8 34q2 16 -0.5 27t-6.5 18q-4 8 -11 13q0 41 -5 81q-5 36 -17 74q-12 39 -38 71q-11 14 -31 28q-19 14 -44 25t-54 18
q-29 6 -58 6q-22 0 -48 -3q-24 -4 -49 -14q-24 -10 -48 -27.5t-43 -45.5q-21 -29 -31.5 -66.5t-14.5 -69.5q-5 -38 -4 -76q-9 -10 -13 -21q-4 -10 -5.5 -24t4.5 -31q5 -17 12 -26.5t13 -14.5q7 -5 14 -7q6 -18 10 -32q5 -13 11 -25q6 -13 14 -20q18 -14 32 -28
q14 -13 16 -36q1 -16 1 -29t-5 -25.5t-16 -24.5q-12 -12 -33 -25q-27 -17 -62 -26t-68 -20q-32 -12 -56.5 -31.5t-30.5 -56.5q-10 -66 -4 -107t16 -49q6 -5 29 -10q22 -5 56 -10t74 -10q39 -4 82 -8q43 -3 79 -5q39 -2 68 -2t69 2q35 2 83 5q45 4 86 9q25 3 45 6v281
q-7 2 -15 4q-29 8 -55 18v0zM770 384h212q18 0 30 12.5t12 29.5t-12 29.5t-30 12.5h-212q-17 0 -29.5 -12.5t-12.5 -29.5t12.5 -29.5t29.5 -12.5v0zM982 215h-212q-17 0 -29.5 -12t-12.5 -29t12.5 -29.5t29.5 -12.5h212q18 0 30 12.5t12 29.5t-12 29t-30 12v0zM982 -37h-212
q-17 0 -29.5 -12t-12.5 -29.5t12.5 -29.5t29.5 -12h212q18 0 30 12t12 29.5t-12 29.5t-30 12v0zM982 -37z" />
    <glyph glyph-name="shoucang1" unicode="&#xe892;" horiz-adv-x="1025" 
d="M1019 428q-8 24 -28 40t-46 20l-243 36l-106 216q-11 23 -34 37t-50 14t-49.5 -14t-34.5 -37l-106 -216l-243 -36q-26 -4 -46 -20t-28 -40q-9 -24 -3 -49t25 -43l178 -176l-41 -243q-4 -26 6.5 -50t31.5 -39q22 -14 48.5 -15.5t49.5 10.5l212 112l212 -112q21 -11 44 -11
q30 0 54 16q22 15 32.5 39t5.5 50l-41 243l178 176q19 18 25 43t-3 49zM966 367l-195 -191l45 -267q5 -27 -19 -44q-25 -17 -52 -3l-233 124l-233 -124q-27 -14 -52 3q-24 17 -19 44l45 267l-195 191q-20 20 -11 46q9 27 39 31l266 39l116 237q13 27 44 27t44 -27l116 -237
l266 -39q30 -4 39 -31q9 -26 -11 -46zM509 435q-69 0 -109 -41q-20 -21 -31 -50.5t-12 -43t-1 -21.5q0 -9 6.5 -15.5t15.5 -6.5h1q9 0 15.5 6.5t6.5 16.5q0 51 31 83q27 28 77 28q9 0 15.5 6.5t6.5 15.5t-6.5 15.5t-15.5 6.5z" />
    <glyph glyph-name="yeshengzhiwu" unicode="&#xe6c3;" 
d="M190 -147q-9 -2 -17 2.5t-11 13.5q-2 9 2.5 17t13.5 10v0q12 3 29 8.5t53.5 19.5t70 36t52.5 48q6 8 15 9t16 -4q8 -6 9 -15t-4 -16q-23 -31 -60 -56.5t-76.5 -41t-58.5 -21.5t-34 -10v0v0zM616 471q-15 0 -28 4q13 -23 13 -48q0 -40 -28 -69v1v-1q-29 -28 -68 -28
q12 -12 20 -25v-2v0l1 -1q19 -33 10 -71l-1 -2q-10 -38 -44 -58l-2 -1q-25 -14 -53 -12q2 -5 4 -15v0q11 -39 -9 -73q-21 -35 -59.5 -45.5t-73.5 9.5t-46 59v0q-4 15 -4.5 29.5t3 29t6.5 24t9 25.5q17 44 17 70v0q1 12 11 18q8 5 17 2.5t14 -9.5q6 -11 15 -20q-2 17 2 52
q5 46 -1 71v0q-3 12 5 21q7 7 16 7t16 -6q15 -15 39 -26q-16 25 -25 78q-7 47 -19 69q-6 11 0 21q4 8 13 10.5t17 -1.5q22 -12 68 -19v-1v0q40 -6 58 -13q-10 20 -10 43q0 21 6.5 40.5t13.5 31t21 30.5q28 37 35 62q2 9 10 13t17 2q12 -4 16 -15v0q7 -25 34 -62l1 -2
q14 -18 20.5 -29.5t13.5 -30.5t7 -40q0 -23 -11 -43q18 7 58 13q46 8 69 20q8 4 16.5 1.5t13.5 -10.5q6 -11 0 -21q-13 -24 -20 -69v0q-3 -23 -6 -35.5t-12.5 -31.5t-24.5 -33l-1 -2q-28 -27 -67 -27q-40 0 -69 28q-29 29 -29 69q0 26 13 48q-13 -4 -28 -4v0zM579 531
q15 -15 37 -15q21 0 36 14l1 1q16 16 16 37q0 20 -8 36t-24 39h-1q-13 19 -20 29q-6 -9 -20 -29q-11 -15 -16.5 -23.5t-11 -23t-5.5 -28.5q0 -22 16 -37v0v0v0zM676 427q0 -22 15 -37q16 -16 38 -15q21 0 36 14l1 1q10 10 16.5 24t8.5 23.5t5 28.5v0v0q4 24 6 35
q-13 -3 -34 -7q-19 -3 -28.5 -5t-24 -8.5t-24.5 -16.5q-15 -15 -15 -37v0zM541 390q15 15 15 37t-15 37l-1 1q-10 10 -24 16t-23.5 8.5t-28.5 4.5v0q-24 4 -34 7q3 -14 6 -35q3 -18 5 -28t8.5 -24t16.5 -24q16 -15 38 -15t37 15v0v0zM574 148q-20 34 -9 73v1v0q10 38 45 59
q26 14 55.5 16.5t53.5 -2.5v0v0q47 -4 71 2q9 2 16.5 -3t10.5 -14q3 -11 -6 -20q-18 -19 -36 -61q-10 -22 -16 -33.5t-20 -27t-32 -26.5q-34 -20 -74 -9h-1q-38 11 -58 45v0zM608 210q-6 -21 5 -40t31 -24h1q21 -6 40 5q12 7 22 19t14.5 20.5t12.5 26.5q9 22 15 31
q-9 1 -35 3v0q-55 6 -82 -9q-19 -11 -24 -32v0v0zM468 210q18 10 24 31v1q6 20 -5 39h-1q-7 12 -18.5 22t-20.5 14.5t-26 11.5q-23 11 -32 16q0 -13 -3 -35q-6 -55 10 -82q11 -19 32 -24q20 -6 40 5v1v0zM491 171l-1 -1v0l1 1v0zM447 -19q-10 38 10 73v0q20 35 59 46
q16 4 30 4.5t29 -2.5t24.5 -6.5t25.5 -9.5q44 -17 69 -17q9 0 15.5 -7t6.5 -16q0 -12 -11 -19v0q-22 -13 -51 -49q-15 -18 -24 -28t-26 -21.5t-37 -16.5q-39 -10 -74 10t-46 59v0zM496 32q-11 -19 -6 -40q6 -21 25 -32t40 -5q14 4 26.5 12.5t19.5 16t18 22.5q16 19 23 27
q-10 3 -33 12q-51 19 -81 12q-21 -6 -32 -25v0v0v0zM360 67q21 6 32 25t5 40v0q-3 13 -12 25.5t-16.5 19.5t-22.5 19q-20 17 -26 23q-4 -12 -12 -34q-6 -13 -8 -20t-5 -18.5t-2.5 -21.5t2.5 -20v0q7 -22 25 -32q19 -11 40 -6v0z" />
    <glyph glyph-name="comiisxiangji" unicode="&#xe657;" 
d="M874 681h-100q-13 29 -18 40q-13 25 -23 34.5t-32 9.5h-375q-23 0 -35.5 -11.5t-25.5 -45.5q-4 -10 -12 -27h-103q-43 0 -73.5 -30.5t-30.5 -72.5v-472q0 -42 30.5 -72.5t73.5 -30.5h724q43 0 73.5 30.5t30.5 72.5v472q0 42 -30.5 72.5t-73.5 30.5zM84 578q0 27 19.5 46
t46.5 19h111q16 0 21.5 13t12.5 29q2 4 6 14q0 2 1 4q10 24 24 24h374q12 0 19 -17l1 -1q7 -17 9 -21q13 -29 14 -32q6 -13 19 -13h112q27 0 46.5 -19t19.5 -46v-472q0 -27 -19.5 -46t-46.5 -19h-724q-27 0 -46.5 19t-19.5 46v472v0zM512 130q88 0 150 62t62 149.5
t-62 149.5t-150 62t-150 -62t-62 -149.5t62 -149.5t150 -62zM512 517q72 0 123.5 -51.5t51.5 -124t-51.5 -123.5t-123.5 -51t-123.5 51t-51.5 123.5t51.5 124t123.5 51.5zM785 515h47q8 0 13.5 6t5.5 13.5t-5.5 13t-13.5 5.5h-47q-8 0 -13.5 -5.5t-5.5 -13t5.5 -13.5
t13.5 -6z" />
    <glyph glyph-name="llbj" unicode="&#xe608;" 
d="M160 526l-72 39q-12 7 -15 19t4 23q4 5 8.5 8.5t10.5 5.5t13 1q6 0 10 -4l73 -39l-32 -53v0zM945 -33q4 -4 4 -11v-32q0 -6 -5 -11t-11 -5h-818q-6 0 -11 5t-5 11v32q0 2 1 5t2 4.5t3.5 3t5 2.5t4.5 1h818q7 0 12 -5v0zM823 34h-598v323q0 115 87.5 195.5t211.5 80.5
t211.5 -80.5t87.5 -195.5v-323zM252 745q-7 12 -3.5 23.5t14.5 18.5q4 2 8.5 3t9.5 1q3 0 5 -0.5t4 -1.5t3.5 -2t3.5 -2t3.5 -2.5t2.5 -3t2 -3.5l42 -68l-55 -31l-40 68v0zM760 371q0 40 -21 77t-54.5 63.5t-76 42t-84.5 15.5t-84.5 -15.5t-76 -42t-54 -63.5t-20.5 -77v-273
h471v273zM550 743h-65v79q0 6 2 10.5t5 8t7 6.5t9 4.5t10 1.5q13 0 22.5 -9t9.5 -22v-79zM744 678l-56 30l41 68q4 7 11.5 10.5t15.5 4t17 -3.5q11 -6 15 -18t-3 -24zM877 527l-31 53l53 39q2 1 5.5 2.5t5.5 1.5h6q16 -3 24 -16q7 -12 3.5 -23.5t-13.5 -17.5zM321 359l2 0.5
t7 2.5t9.5 3.5t10.5 2.5t11 1q9 0 31 -7t24 -7q1 0 4 0.5t7 1.5q4 2 9 3.5t10 2.5q5 2 9.5 3.5t8.5 2t7 0.5q8 0 27 -7t23 -7q6 -1 25 6.5t29 7.5q10 1 25.5 -6.5t22.5 -7.5q3 0 7.5 1t9.5 2q4 2 10 4q5 2 10.5 3.5t11.5 2.5t11 1q12 1 26.5 -6t19.5 -5v-33l-10 5t-18 7.5
t-17 3.5q-5 0 -25.5 -8t-28.5 -8t-26 5t-24.5 5t-27 -6.5t-27.5 -6.5q-5 0 -14 3.5t-18 6.5t-16 3q-9 0 -28 -6.5t-27 -6.5q-7 0 -21 6.5t-26 6.5q-6 0 -13.5 -2t-13.5 -4t-12.5 -4t-10 -3t-4.5 0v37zM321 296q22 11 40 11q9 0 31 -7.5t24 -7.5t13.5 3.5t23.5 7.5t18 4
q8 0 27 -7t23 -8q6 0 25 7t29 8q8 0 17 -3.5t17 -7.5t14 -4t27 7.5t33 7.5t26.5 -6.5t19.5 -5.5v-32q-4 2 -10 4.5t-18 7t-17 4.5q-5 -1 -25.5 -8.5t-28.5 -7.5t-26 5t-24.5 5t-27 -6.5t-27.5 -6.5q-6 0 -22.5 6t-25.5 6t-28 -6t-27 -6q-7 0 -21 6.5t-26 5.5q-9 0 -22 -3.5
t-22 -6.5t-10 -2v36zM321 234q22 11 40 11q9 0 31 -7.5t24 -7.5q2 -1 13.5 3t23.5 8t18 4q8 0 27 -7.5t23 -7.5q6 -1 25 6.5t29 8.5q6 0 13 -2t12.5 -5t11.5 -5.5t11 -2.5q6 0 27 7t33 8q10 0 19.5 -3.5t16 -7t10.5 -2.5v-32l-10 5t-18 7t-17 4t-25.5 -8t-28.5 -8
q-7 0 -25.5 5t-25 5t-27 -6.5t-27.5 -6.5q-6 0 -22.5 6.5t-25.5 6.5t-28 -6.5t-27 -6.5q-7 0 -21 6.5t-26 6.5q-9 -1 -22 -4.5t-22 -6t-10 -2.5v37v0zM321 171q22 11 40 11q9 0 31 -7t24 -7q2 -1 13.5 3t23.5 7.5t18 3.5q8 0 27 -7t24 -7.5t14 2.5l20 8q11 4 19 4
q10 1 25.5 -6.5t22 -7.5t27.5 7t33 7t26.5 -6.5t19.5 -5.5v-32l-10 5t-18 7t-17 4t-25.5 -8t-28.5 -8q-7 0 -25.5 5t-25 5t-27 -7t-27.5 -6q-3 0 -7 1t-8 2.5t-8.5 3t-8 3t-8 2.5t-8.5 1q-9 0 -28.5 -7t-26.5 -6q-7 0 -21 6.5t-26 6.5q-9 -1 -22 -4.5t-22 -6.5t-10 -2v36z
" />
    <glyph glyph-name="dianhua" unicode="&#xe6c9;" 
d="M699 197q-70 68 -125 68q-25 0 -44 -13l-30 -23q-36 8 -71.5 38t-61.5 75.5t-34.5 91t2.5 80.5l35 15q33 15 43.5 56.5t-3.5 104.5q-6 29 -17.5 60t-29.5 62.5t-44 52t-55 20.5q-12 0 -24 -3l-59 -19q-37 -13 -63.5 -42.5t-34.5 -68.5q-24 -113 4.5 -247t103.5 -264.5
t177 -222t212 -127.5q23 -7 46 -7q57 0 99 38l46 41q43 39 15 111q-23 62 -87 123zM737 0l-46 -41q-27 -26 -65 -26q-16 0 -30 5q-102 34 -196.5 119.5t-165.5 208t-98 247t-5 229.5q6 26 23.5 45.5t42.5 27.5l58 19q5 2 9 2q28 0 56.5 -48.5t41.5 -107.5q9 -42 5.5 -70.5
t-17.5 -34.5l-53 -24l-1 -3q-22 -46 -14.5 -108t42.5 -122.5t85 -98t101 -41.5l3 -1l47 34q5 4 14 4q34 0 90 -53t76 -105q15 -41 -3 -57zM906 624q-41 81 -109 139t-154 86q-4 1 -7 1q-19 0 -24 -17q-3 -10 1.5 -19t14.5 -12q77 -25 137.5 -77t97 -124t42.5 -151.5
t-19 -155.5q-3 -10 1.5 -19t14.5 -13q3 -1 7 -1q19 0 24 17q28 87 21 176t-48 170zM597 706q-4 2 -8 2q-18 0 -24 -18q-3 -9 1.5 -18.5t14.5 -12.5q100 -32 147 -125.5t15 -193.5q-3 -9 1.5 -18.5t14.5 -12.5q4 -1 8 -1q18 0 23 17q39 119 -18 231q-27 54 -72.5 92.5
t-102.5 57.5zM535 516q40 -13 59 -51t6 -78q-3 -10 1.5 -19t14.5 -12q4 -2 8 -2q18 0 23 18q20 59 -8.5 115.5t-88.5 75.5q-4 2 -8 2q-18 0 -23 -17q-4 -10 1 -19.5t15 -12.5z" />
    <glyph glyph-name="iconset0336" unicode="&#xe6eb;" 
d="M896 725h-768q-35 0 -60 -25t-25 -60v-512q0 -35 25 -60t60 -25h768q35 0 60 25t25 60v512q0 35 -25 60t-60 25zM128 683h768q11 0 15 -2l-369 -370q-13 -12 -30 -12t-30 12l-369 370q4 2 15 2zM85 128v512v6l265 -262l-265 -262v6zM896 85h-768q-11 0 -15 2l267 267
l72 -72q26 -26 60 -26q33 0 60 23l72 73l267 -267h-15zM939 128v-6l-265 262l265 262v-6v-512z" />
    <glyph glyph-name="lianzhengjianshe" unicode="&#xe65f;" 
d="M220 -66q-15 0 -25.5 11t-10.5 26t10.5 25.5t25.5 10.5h86v41q0 15 9 25l2 2q12 12 28 12h130v600v0q-21 -4 -36 -11q-15 -6 -31 -17q-17 -12 -27 -23q-33 -31 -74 -49q-23 -9 -44 -14q-2 0 -8 -1t-9 -1l94 -289q9 -3 15 -9q10 -10 10 -25.5t-10 -25.5q-28 -28 -64 -43v0
q-38 -15 -75 -15q-38 0 -74 15l-3 1q-36 16 -61 42q-11 10 -11 25.5t11 25.5q6 7 14 9l95 289q-13 2 -14 2q-22 5 -44 14q-20 8 -39 21q-17 11 -34 28q-7 7 -7 16t7 15q6 7 15.5 7t15.5 -7q14 -13 27 -22q18 -12 32 -18q17 -7 35 -10q18 -4 37 -4t37 4q18 3 36 10
q31 14 58 40l1 1q17 17 34 28q15 10 38 20q22 10 44 14l9 2v69q0 16 11 26.5t26 10.5t25.5 -10.5t10.5 -26.5v-69l9 -2q22 -4 44 -14q21 -9 39 -20q19 -13 34 -29q17 -15 27 -22q18 -12 32 -18q17 -7 35 -10q19 -4 37 -4q19 0 37 4q17 3 35 10q32 14 59 40q7 7 16 7t16 -7
q6 -6 6 -15t-6 -16q-33 -32 -74 -49q-22 -9 -43 -14q-2 0 -15 -2l95 -289q8 -2 14 -9q11 -10 11 -25.5t-11 -25.5q-27 -28 -63 -43q-37 -15 -75 -15q-37 0 -75 15l-1 1q-36 16 -62 42q-11 10 -11 25.5t11 25.5q5 6 14 9l95 289q-3 0 -9 1t-9 1q-22 5 -44 14q-20 8 -39 21
q-20 13 -34 28q-14 14 -28 23q-15 10 -31 17q-14 6 -36 11v0v-600h131q16 0 27 -12q12 -10 12 -27v-41h85q15 0 26 -10.5t11 -25.5t-11 -26t-26 -11h-583v0v0zM889 270v0l-82 251l-82 -251q15 -14 34 -23h1q22 -9 47 -9t47 9v0q22 10 35 23v0v0zM298 270v0l-82 251l-82 -251
q14 -14 34 -23h2q21 -9 46 -9t47 9v0q21 9 35 23v0v0zM349 7v0h325v36h-325v-36v0v0zM349 7z" />
    <glyph glyph-name="gou" unicode="&#xe74f;" 
d="M853 669l-434 -435l-191 196q-18 18 -42.5 18t-42 -17t-18 -41.5t16.5 -41.5l234 -239h1v0v-1v0q3 -3 13 -9q1 0 3 -1.5t4 -1.5q10 -5 22 -5t22 4q2 1 4 2.5t3 1.5q9 6 12 9h1v1l476 477q18 18 17.5 42t-17.5 41.5t-42 17t-42 -17.5v0z" />
    <glyph glyph-name="guankanlishi" unicode="&#xe618;" 
d="M675 320l-163 46v275h-63v-318l2 -1l194 -55l30 53v0zM675 320zM512 832q-91 0 -173.5 -35.5t-142 -95.5t-95 -142.5t-35.5 -173t35.5 -173t95 -142.5t142 -95t173.5 -35t173.5 35t142 95t95 142.5t35.5 173t-35.5 173t-95 142.5t-142 95.5t-173.5 35.5v0zM512 2
q-105 0 -193 51t-139.5 139.5t-51.5 193t51.5 193t139.5 139.5t193 51t193 -51t139.5 -139.5t51.5 -193t-51.5 -193t-139.5 -139.5t-193 -51v0zM512 2z" />
    <glyph glyph-name="me" unicode="&#xe606;" 
d="M665 229.5q0 -7.5 5.5 -13.5t13.5 -6h258q8 0 13.5 6t5.5 13.5t-5.5 13t-13.5 5.5h-258q-8 0 -13.5 -5.5t-5.5 -13zM942 155h-258q-8 0 -13.5 -6t-5.5 -13.5t5.5 -13t13.5 -5.5h258q8 0 13.5 5.5t5.5 13t-5.5 13.5t-13.5 6zM942 48h-258q-8 0 -13.5 -5.5t-5.5 -13
t5.5 -13t13.5 -5.5h258q8 0 13.5 5.5t5.5 13t-5.5 13t-13.5 5.5zM598 -29h-368q-62 9 -94 34q-22 17 -30 41q-8 23 -4 52q10 67 72 148q21 28 47 51.5t46.5 37t42 24.5t30.5 14l15 5l26 5h4q58 -35 127 -35q56 0 106 24q38 -11 73 -27q35 -17 65 -40q7 -5 14.5 -4t12.5 7.5
t3.5 14t-7.5 12.5q-33 25 -72 44q-22 10 -47 19q13 10 24 21q72 71 72 172t-71.5 172.5t-172.5 71.5t-172.5 -71.5t-71.5 -172.5t72 -172l5 -5q-12 -3 -28 -10t-46.5 -23.5t-64.5 -46t-62 -66.5q-68 -88 -79 -164q-6 -39 5 -70q12 -35 43 -59q41 -31 112 -42h4h369
q8 0 13.5 5.5t5.5 13.5t-5.5 13.5t-13.5 5.5zM306 591.5q0 85.5 60.5 145.5t145.5 60t145.5 -60t60.5 -145.5t-60.5 -146t-145.5 -60.5t-145.5 60.5t-60.5 146z" />
    <glyph glyph-name="qiye" unicode="&#xe6f8;" 
d="M583 832h-446q-31 0 -52.5 -22t-21.5 -52v-748q0 -31 21.5 -52.5t52.5 -21.5h446q30 0 52 21.5t22 52.5v748q0 30 -22 52t-52 22zM583 9h-446v747h446v-747zM211 603h119v-75h-119v75zM394 603h118v-75h-118v75zM211 452h119v-74h-119v74zM394 452h118v-74h-118v74z
M211 303h119v-74h-119v74zM394 303h118v-74h-118v74zM883 588h-300v-76h300v-503h-300v-73h300q31 0 52.5 21.5t21.5 52.5v503q0 31 -21.5 53t-52.5 22zM733 452h74v-74h-74v74zM733 302h74v-74h-74v74z" />
    <glyph glyph-name="sc" unicode="&#xe605;" 
d="M121 392q51 -55 104.5 -109.5t136.5 -136.5t107 -106q43 -43 83 -4q27 28 110 110t138.5 139t106.5 113q45 50 50 115.5t-26 126.5q-59 126 -219 127q-29 2 -56 -6t-47 -19t-43.5 -31.5t-38 -36.5t-38 -42.5t-37.5 -40.5q-7 -7 -6 -17t9 -17q17 -13 35 3q7 6 76 74
q24 23 38 35t38.5 25.5t49.5 16.5q130 19 189 -91q27 -51 18 -109.5t-54 -104.5q-49 -51 -148 -149.5t-147 -148.5q-15 -15 -28 -18.5t-24 2t-25 20.5q-49 50 -146.5 147.5t-144.5 146.5q-55 56 -60 122t40 121q44 54 110 63t133 -31q1 -1 7 -5t8 -5t7.5 -3.5t7.5 -2.5h6.5
t7.5 2t6.5 5.5t6.5 8.5q4 8 4.5 14.5t-4 11.5t-8 8t-11 7.5t-9.5 6.5q-69 47 -158.5 37t-145.5 -71q-60 -66 -63.5 -151.5t54.5 -151.5v0z" />
    <glyph glyph-name="honorList" unicode="&#xe662;" 
d="M959 585q0 -48 -22 -99t-61.5 -87t-84.5 -36q-22 0 -36 2q-34 -79 -96 -129.5t-103 -50.5v-141h68q10 0 19 -15.5t9 -29t-9 -29.5t-19 -16h-224q-11 0 -19.5 16t-8.5 29.5t8.5 29t19.5 15.5h67v141q-39 0 -101 52t-98 128q-14 -2 -36 -2q-44 0 -84 36t-62 87t-22 99v12
q0 77 23 89.5t161 12.5v0q0 48 33 81.5t79 33.5h303q46 0 79 -33.5t33 -81.5q128 0 153 -9q27 -9 30 -45q1 -12 1 -60zM248 626q-20 0 -40.5 0.5t-30 2t-19.5 0.5t-13 -1.5t-5.5 -7t-2.5 -13v-22.5q0 -51 33.5 -99.5t77.5 -48.5v189zM775 626v-189q44 0 78 48.5t34 99.5
v22.5t-3 13t-6 7t-12.5 1.5t-19.5 -0.5t-30.5 -2t-40.5 -0.5z" />
    <glyph glyph-name="jianyi" unicode="&#xe675;" 
d="M215 251h302v-57h-302v57zM220 93h449v-57h-449v57zM853 340q-12 0 -20.5 -8.5t-8.5 -19.5v-46v-179v-144h-711v822h35h211h39q12 0 20.5 8t8.5 20t-8.5 20.5t-20.5 8.5h-250v0h-35v0h-57v0v-57v-822v-57h57h768v4v53v144v179v46q0 11 -8 19.5t-20 8.5zM1000 714
l-142 143q-7 6 -16 6q-8 2 -16 -6l-354 -353q-6 -5 -7 -13l-19 -159q-2 -10 6 -18q7 -7 16 -7h2l160 15q8 1 14 7l356 353q6 7 6 16.5t-6 15.5zM618 367l-124 -12l15 123l333 331l109 -111z" />
    <glyph glyph-name="gou1" unicode="&#xe73d;" 
d="M506 880q-102 0 -195 -40t-160.5 -107t-107 -160t-39.5 -195.5t39.5 -195.5t107 -160t160.5 -107t195 -40t195 40t160.5 107t107 160t39.5 195.5t-39.5 195.5t-107 160t-160.5 107t-195 40v0zM775 510l-312 -312q-10 -10 -24 -10t-24 10l-156 156q-10 10 -10 23.5
t10 23.5t24 10t24 -10l132 -132l289 288q10 10 23.5 10t23.5 -9.5t10 -23.5t-10 -24v0zM775 510z" />
    <glyph glyph-name="unie605" unicode="&#xe624;" horiz-adv-x="1025" 
d="M893 304q-9 0 -15.5 -6t-6.5 -15v-305q0 -18 -13 -31t-31 -13h-610q-18 0 -30.5 13t-12.5 31v305q0 9 -6.5 15t-15.5 6t-15.5 -6t-6.5 -15v-305q0 -36 25.5 -61.5t60.5 -25.5h612q36 0 61 25.5t25 61.5v305q0 9 -6 15t-15 6zM1004 593l-139 256h-1q-23 41 -70 43h-536
q-50 0 -75 -43h-1l-139 -256q-20 -33 -20 -72q0 -58 41.5 -99.5t99.5 -41.5q38 0 69.5 18t50.5 49q20 -31 51.5 -48.5t68.5 -17.5t69 18t51 48q19 -30 50.5 -48t69 -18t69 17.5t50.5 48.5q19 -31 51 -49t69 -18q59 0 100.5 41.5t41.5 99.5q0 39 -21 72v0zM883 424
q-40 0 -69 28.5t-29 68.5q0 3 -0.5 7t-6 10t-15.5 6q-9 0 -15.5 -6.5t-6.5 -15.5q0 -40 -28.5 -69t-69 -29t-69 29t-28.5 69q0 9 -6.5 15.5t-15.5 6.5t-15.5 -6.5t-6.5 -15.5q0 -40 -29 -69t-69.5 -29t-69 29t-28.5 69q0 9 -6.5 15.5t-15.5 6.5q-10 0 -15 -6t-6 -10t-1 -6
q0 -41 -28.5 -69.5t-69.5 -28.5q-40 0 -69 28.5t-29 68.5q0 11 5.5 27t11.5 27l5 10l132 242q13 22 38 22l4 -1v1h523v-1q4 1 5 1q24 0 37 -22l132 -242q22 -41 22 -64q0 -40 -28.5 -68.5t-68.5 -28.5h-1z" />
    <glyph glyph-name="shipin" unicode="&#xe659;" 
d="M508 861q-96 0 -184 -37.5t-151 -100.5t-100.5 -151t-37.5 -184t37.5 -184t101 -151t151 -100.5t183.5 -37.5t183.5 37.5t151 101t101 151t37.5 183.5t-37.5 184t-100.5 151t-151 100.5t-184 37.5zM508 -14q-109 0 -202 53.5t-146.5 146.5t-53.5 202t53.5 202
t146.5 146.5t202 53.5t202 -53.5t146.5 -146.5t53.5 -202t-53.5 -202t-146.5 -146.5t-202 -53.5zM689 421l-244 141q-19 10 -38 -1t-19 -32v-283q0 -21 19 -32t38 0l244 140q18 12 18 34t-18 33z" />
    <glyph glyph-name="anquanjianguan" unicode="&#xe713;" 
d="M911 752q-18 17 -44 17h-4h-27q-72 0 -130 14q-28 6 -61.5 27.5t-64.5 47t-34 27.5q-16 11 -35.5 11t-35.5 -11q-1 0 -6 -5t-13.5 -12.5t-19.5 -17.5t-25 -20t-28.5 -19.5t-31.5 -17t-32 -10.5q-58 -14 -131 -14h-27h-4q-26 0 -45 -17q-20 -19 -20 -47v-160
q0 -95 13.5 -179t35.5 -145t53 -113t62 -86.5t67 -62t63 -42.5t55 -26t39.5 -14t18.5 -4q6 -1 11.5 -1t11.5 1q7 1 18.5 4t39.5 14t55.5 26t64 42.5t67.5 62t62 86.5t53.5 113t36 145t13.5 179v160q0 28 -21 47v0v0v0zM867 545q0 -357 -193 -523q-79 -68 -161 -85l-2 -1
q-5 1 -13 3t-32 11.5t-47.5 22t-55.5 37.5t-59.5 56t-55 78.5t-47.5 103.5t-32.5 132.5t-12.5 164.5v160q13 -1 32 -1q81 0 146 16q40 10 84 38t68 51l25 23q10 -10 27.5 -25.5t65 -46t87.5 -40.5q65 -16 145 -16l31 1v-160v0v0v0zM711 578l-250 -248l-124 123
q-11 12 -27.5 12t-28 -11.5t-11.5 -28t11 -27.5l145 -144q3 -5 6 -8q12 -12 29 -12t29 12q4 3 6 8l271 269q12 11 12 27.5t-11.5 28t-28 11.5t-28.5 -12v0v0v0zM711 578z" />
    <glyph glyph-name="zhaopin" unicode="&#xe66d;" 
d="M523.5 351q-108.5 0 -185.5 77t-77 185.5t77 185.5t185.5 77t185.5 -77t77 -185.5t-77 -185.5t-185.5 -77zM523.5 825q-87.5 0 -149.5 -62t-62 -149.5t62 -149.5t149.5 -62t149.5 62t62 149.5t-62 149.5t-149.5 62zM708 -112q-26 0 -83 1q-67 2 -102 2q-28 0 -82 -1
q-48 -1 -71 -1q-119 0 -171 17q-81 27 -81 103q0 106 54.5 195.5t147.5 141.5t203 52t203.5 -52t148 -141.5t54.5 -195.5q0 -25 -8.5 -44.5t-20.5 -32.5t-32.5 -22t-37 -13t-43 -6.5t-40.5 -2.5h-39zM523 -58q36 0 103 -2q57 -1 82 -1q70 0 107.5 8.5t50 23t12.5 38.5
q0 92 -47.5 170t-129.5 123t-178 45t-177.5 -45t-129 -123t-47.5 -170q0 -21 10.5 -33.5t35.5 -20.5q44 -15 155 -15q22 0 70 1q54 1 83 1zM520 -53q-9 0 -16 6l-91 75q-14 11 -8 28l57 164l-34 58q-5 10 -2 20.5t13 15.5q48 24 84 24q38 0 80 -25q9 -5 12 -15.5t-3 -19.5
l-34 -58l64 -163q7 -18 -9 -30l-97 -75q-7 -5 -16 -5zM459 56l62 -51l66 51l-62 157q-4 12 2 23l27 44q-18 7 -31 7t-36 -8l25 -44q6 -10 2 -21z" />
    <glyph glyph-name="chaxun" unicode="&#xe681;" 
d="M1012 -38l-206 206q85 117 85 262q0 91 -35 173.5t-95 142.5t-142.5 95t-173 35t-173 -35t-142 -95t-95 -142.5t-35.5 -173t35.5 -173t95 -142t142 -95t173.5 -35.5q92 0 176 36v2h2t1 1q22 11 22 36q0 17 -12 28.5t-29 11.5h-3h-1q-2 0 -5 -1h-1q-5 -1 -9 -4
q-35 -14 -68 -21q-35 -7 -71 -7q-99 0 -183 49t-133 133t-49 183q0 74 28 140.5t78.5 117t117.5 78.5t141 28q99 0 183 -48.5t132.5 -132.5t48.5 -183q0 -115 -65 -209q-10 -14 -22 -28v0v0q-14 -13 -14 -30q0 -16 11 -28v0l1 -1l1 -1l27 -29l203 -202q12 -12 29 -12t29 12
t12 29t-12 29z" />
    <glyph glyph-name="yewuxinxi" unicode="&#xe673;" 
d="M757 -56h-490q-61 0 -104 43t-43 104v588q0 60 43 103t104 43h25q10 0 17 -7t7 -17t-7 -17t-17 -7h-25q-40 0 -69 -29t-29 -69v-588q0 -40 29 -69t69 -29h490q40 0 69 29t29 69v588q0 40 -29 69t-69 29h-25q-10 0 -17 7t-7 17t7 17t17 7h25q61 0 104 -43t43 -103v-588
q0 -61 -43 -104t-104 -43v0zM757 -56zM628 776h-232q-10 0 -17.5 7.5t-7.5 17.5t7.5 17t17.5 7h232q10 0 17.5 -7t7.5 -17t-7.5 -17.5t-17.5 -7.5v0zM628 776zM760 520h-496q-10 0 -17 7.5t-7 17.5t7 17t17 7h496q10 0 17 -7t7 -17t-7 -17.5t-17 -7.5v0zM760 520zM760 360
h-496q-10 0 -17 7.5t-7 17.5t7 17t17 7h496q10 0 17 -7t7 -17t-7 -17.5t-17 -7.5v0zM760 360zM760 200h-496q-10 0 -17 7.5t-7 17.5t7 17t17 7h496q10 0 17 -7t7 -17t-7 -17.5t-17 -7.5v0zM760 200z" />
    <glyph glyph-name="jubao" unicode="&#xe609;" 
d="M959 664v0q-36 21 -231 110t-216 89q-6 0 -31.5 -9.5t-64 -26.5t-79.5 -35.5t-88 -41t-81 -38.5t-66 -31.5t-36 -17.5q-12 -6 -14.5 -14t4 -17.5t15.5 -19t20 -21.5t17 -21q9 -17 17 -40t11 -39l3 -15q102 31 174.5 43t198.5 12q80 0 169 -11t143.5 -23t58.5 -19
q10 45 42 92q15 17 23 27t18 25.5t8 26t-15 15.5zM922 626q-8 -10 -27 -32q-2 -2 -3 -4q-21 -30 -34 -63l-2 1q-37 9 -90 18q-134 22 -254 22q-116 0 -188.5 -10t-155.5 -34q-11 39 -26 64q-9 15 -33 41q-6 5 -9 9q2 0 4.5 1.5t3.5 2.5q139 66 226 106q143 66 178 77
q44 -13 216 -93q137 -63 201 -95q-3 -5 -7 -11zM883 478q-1 -1 -1 -2q1 1 1 2zM874 339q-19 14 -46 14q-5 87 -35 108q-3 1 -7 1q-13 7 -23 -3q-20 -19 -61 -38q-82 -38 -188 -38t-189 38q-41 19 -61 38q-9 8 -21 5q-6 0 -12 -4q-30 -21 -35 -108q-27 0 -46 -14
q-32 -23 -32 -79q0 -68 60 -112q23 -16 50 -27q23 -55 62 -104q40 -49 88 -78q62 -36 134 -36q3 0 7 1q68 2 127 36q49 29 89 78q39 49 62 104q27 10 49 27q61 44 61 112q0 56 -33 79zM823 178q-23 -17 -47 -24q-10 -3 -13 -12q-19 -51 -60 -103q-80 -99 -191 -99h-6
q-106 2 -184 98q-42 51 -60 103q-3 9 -13 12q-24 7 -48 24q-44 33 -44 82q0 37 17 49q14 10 35 5q10 -3 17.5 2.5t8.5 15.5q1 60 15 90q22 -17 50 -31.5t87.5 -29.5t126.5 -15q66 0 124.5 14.5t86.5 29t50 31.5q1 -1 1 -2q13 -30 14 -86q0 -10 8 -15.5t17 -2.5q20 6 35 -5
q17 -12 17 -49q0 -49 -44 -82zM589 741h-155q-12 0 -17.5 -9.5t0.5 -18.5l77 -125q6 -9 17.5 -9t16.5 9l78 125q6 9 0.5 18.5t-17.5 9.5zM511 634l-43 70h87z" />
    <glyph glyph-name="miaozhunjing2" unicode="&#xe626;" 
d="M512 -63q-91 0 -174 35.5t-142.5 95t-95 142.5t-35.5 174t35.5 174t95 142.5t142.5 95t174 35.5t174 -35.5t142.5 -95t95 -142.5t35.5 -174t-35.5 -174t-95 -142.5t-142.5 -95t-174 -35.5v0zM531 791v-124q0 -8 -5.5 -13.5t-13.5 -5.5t-13.5 5.5t-5.5 13.5v124
q-104 -5 -191 -57.5t-139.5 -139.5t-57.5 -191h157q9 0 14.5 -5.5t5.5 -13.5t-5.5 -13.5t-14.5 -5.5h-157q5 -104 57.5 -191t139.5 -139.5t191 -57.5v135q0 8 5.5 13.5t13.5 5.5t13.5 -5.5t5.5 -13.5v-135q104 5 191 57.5t139.5 139.5t57.5 191h-115q-8 0 -14 5.5t-6 13.5
t6 13.5t14 5.5h115q-5 104 -57.5 191t-139.5 139.5t-191 57.5v0z" />
    <glyph glyph-name="dingdan" unicode="&#xe9a6;" 
d="M713 161h-402q-14 0 -24 -7.5t-10 -17t10 -17t24 -7.5h402q14 0 24 7.5t10 17t-10 17t-24 7.5v0zM676 896v-1h-10t-21 0.5t-36 0.5h-395q-56 0 -95 -39.5t-39 -95.5v-752q0 -56 39 -95t95 -39h596q56 0 95 39t39 95v618l-268 269v0zM879 625l-136 2h4q-25 0 -50 20.5
t-25 46.5l-1 139l208 -208v0zM886 -1q0 -28 -20 -48t-49 -20h-610q-29 0 -49 20t-20 48v772q0 28 20 48.5t49 20.5h403l1 -138q0 -57 40.5 -97t97.5 -40h137v-566v0v0zM713 362h-402q-14 0 -24 -7t-10 -17t10 -17t24 -7h402q14 0 24 7t10 17t-10 17t-24 7v0zM548 563h-250
q-9 0 -15 -7t-6 -17t6 -17t15 -7h250q9 0 15 7t6 17t-6 17t-15 7v0z" />
    <glyph glyph-name="iconfontjiaoyubeijing" unicode="&#xe60c;" 
d="M1024 507l-516 246l-508 -252l229 -113v-266l11 -9q6 -4 15.5 -10.5t37.5 -22t58 -27t73.5 -22t86.5 -11.5h9q42 0 83.5 9.5t68.5 21.5t52 27t33.5 22t13.5 11l9 9v265zM508 688l384 -182l-384 -192l-377 187zM722 146q-19 -14 -42.5 -27.5t-71.5 -27.5t-96 -13
q-118 3 -225 74v207l221 -110l214 107v-210zM36 350h58v-221h-58v221zM702 539l-149 72l-13 -26l149 -72zM736 521l29 -15l-13 -26l-29 15z" />
    <glyph glyph-name="dianji" unicode="&#xe65e;" 
d="M778 488h-2q-23 0 -44 -13q-9 26 -30 42t-49 16q-25 0 -46 -13q-8 26 -29.5 42t-48.5 16q-22 0 -41 -10v87q0 35 -24 60t-60 25q-35 0 -60.5 -25t-25.5 -60v-333l-52 52q-26 25 -63 24t-59 -24q-15 -15 -24 -36t-5.5 -46.5t22.5 -44.5l241 -239q7 -7 16 -13
q36 -29 81 -43t120 -14q51 0 91 8t68 21.5t47.5 35.5t31 44.5t18 55t8.5 61t2 67.5v171q0 36 -23.5 61t-59.5 25v0zM815 231q0 -38 -0.5 -57.5t-4.5 -51t-12 -47.5t-24 -37t-39 -30.5t-58.5 -17t-81.5 -7.5q-68 0 -113.5 15.5t-77.5 47.5l-228 226q-14 16 -13 33t14 30
q13 12 32 12.5t31 -11.5q41 -40 75 -74l49 -49v432q0 17 12 29t28 12q17 0 27.5 -11.5t10.5 -29.5v-274h1q-1 -3 -1 -5q0 -9 7 -15.5t16.5 -6.5t16 6.5t6.5 15.5q0 2 -1 5h1v112q0 17 11 29t28 12q1 0 4 -0.5t10 -2.5t12 -5.5t9.5 -12t4.5 -20.5v-148v0v-5q0 -9 6.5 -15.5
t16 -6.5t16 6.5t6.5 15.5v5v0v103q0 17 11 29t28 12q1 0 4 -0.5t10 -3t12.5 -6.5t10 -12t4.5 -19v-130v0v-5q0 -9 6.5 -16t16 -7t15.5 7t6 16v5v0v89q0 17 11.5 28.5t28.5 11.5h4t9.5 -2t12 -5.5t9.5 -12t4 -20.5v-166v0zM285 527v76q-12 25 -12 52q0 54 38 92t92 38t92 -38
t38 -92q0 -14 -3 -28q25 -1 42 -18q6 23 6 46q0 73 -51 124.5t-123.5 51.5t-124 -51.5t-51.5 -124.5q0 -76 57 -128v0z" />
    <glyph glyph-name="fapiao" unicode="&#xe61d;" 
d="M958 503q3 0 9 2t8 2q4 4 4 16v140q0 52 -19 71t-71 19h-754q-50 0 -70 -19.5t-20 -70.5v-140q0 -8 8 -16q4 -4 17 -4q59 0 90 -25q28 -28 28 -94q0 -58 -30 -88.5t-88 -30.5q-10 0 -15.5 -5.5t-5.5 -14.5v-140q0 -52 19 -71t71 -19h754q52 0 71 19t19 71v140q0 8 -8 16
q-4 4 -17 4q-57 0 -86 29q-32 33 -32 90q0 53 32 86q29 33 86 33zM799 384q0 -74 45 -119q34 -34 94 -41v-119q0 -33 -7.5 -41t-41.5 -8h-754q-34 0 -41.5 8t-7.5 41v119q67 6 103 47.5t36 112.5q0 88 -41 123q-30 37 -98 37v119q0 33 7.5 41t41.5 8h754q34 0 41.5 -8
t7.5 -41v-119q-66 -8 -94 -41q-45 -45 -45 -119zM680 638q-6 6 -14.5 6t-14.5 -6l-139 -139l-139 139q-6 6 -14.5 6t-14.5 -6t-6 -14.5t6 -14.5l119 -119h-107q-9 0 -14.5 -5.5t-5.5 -14.5q0 -10 5.5 -17.5t14.5 -7.5h136v-90h-136q-9 0 -14.5 -5.5t-5.5 -14.5t5.5 -15
t14.5 -6h136v-168q0 -9 5.5 -14.5t14.5 -5.5t14.5 5.5t5.5 14.5v168h136q9 0 14.5 6t5.5 15t-5.5 14.5t-14.5 5.5h-136v90h136q9 0 14.5 6t5.5 15t-5.5 14.5t-14.5 5.5h-107l119 119q6 6 6 16.5t-6 16.5z" />
    <glyph glyph-name="paiming" unicode="&#xe61b;" 
d="M983 -128h-942q-17 0 -29 12t-12 29v17q0 17 12 29t29 12h942q17 0 29 -12t12 -29v-17q0 -17 -12 -29t-29 -12zM963 49h-194q-17 0 -29 12t-12 29v568q0 17 12 29t29 12h194q17 0 29 -12t12 -29v-568q0 -17 -12 -29t-29 -12zM609 49h-194q-17 0 -29 12t-12 29v765
q0 17 12 29t29 12h194q17 0 29 -12t12 -29v-765q0 -17 -12 -29t-29 -12zM255 49h-194q-17 0 -29 12t-12 29v372q0 16 12 28t29 12h194q17 0 29 -12t12 -28v-372q0 -17 -12 -29t-29 -12z" />
    <glyph glyph-name="dianhua1" unicode="&#xe64b;" 
d="M926 635q0 25 -24.5 63.5t-65 70t-78.5 31.5q-56 0 -129.5 -32t-146 -83.5t-143.5 -121t-124.5 -142t-87 -149.5t-33.5 -141q0 -57 52 -111t116 -54q15 0 56 49t76.5 106t35.5 77q0 24 -20 60.5t-20 55t40.5 66t89 87.5t69.5 40t53.5 -19t55.5 -19q12 0 44 17
q23 12 48 27t48 31q88 60 88 91v0v0zM926 635z" />
    <glyph glyph-name="fund" unicode="&#xe60d;" 
d="M531 832q100 -2 200 -59q18 -10 14 -29q-3 -20 -23 -23q-10 -2 -20 4q-54 31 -117 44q-131 26 -252 -35t-178 -182q-46 -98 -36 -206q13 -129 101 -226t216 -121q103 -19 199.5 13.5t165 108.5t91.5 177q32 143 -39 274q-9 16 -6 26q4 19 23 22t29 -14q24 -43 39 -91
q21 -76 19.5 -149t-29 -141.5t-71.5 -124t-108 -95.5t-139 -58q-118 -27 -231.5 8t-195 121.5t-109.5 204t5.5 230.5t118.5 195.5t202 112.5q55 14 131 13v0zM481 328v56h-7h-102q-15 0 -23 9t-7 23q1 10 9.5 17t19.5 7h91h8l-5 5q-7 7 -49 49.5t-65 64.5q-16 17 -5 36
q7 10 19 12.5t22 -5.5q2 -1 6 -5l112 -112l3 -6q1 0 1.5 0.5t1.5 0.5q3 5 4 5q9 10 50 50.5t63 62.5q12 13 28 9t20 -19.5t-7 -27.5q-3 -3 -35 -34q-55 -56 -79 -80q-1 0 -6 -4l1 -2h6h92q24 0 29 -22q2 -12 -4.5 -21.5t-17.5 -11.5q-4 -1 -9 -1h-101h-7v-56h7h105
q22 0 27 -22q2 -9 -2.5 -18t-12.5 -13q-7 -3 -14 -3h-104h-6v-7q0 -90 -1 -105q0 -18 -16 -25t-30 4q-10 8 -9 23v103v7h-7h-105q-20 0 -27 19q-6 18 8 30q8 7 20 7h103h7v0z" />
    <glyph glyph-name="build" unicode="&#xe602;" 
d="M65 602h895v-41h-895v41zM266 563l-29 29l263 258l290 -248l-27 -31l-261 224zM356 513h137v-41h-137v41zM403 492h41v-466h-41v466zM360 10zM355 52h137v-41h-137v41zM139 514h137v-41h-137v41zM185 496h41v-466h-41v466zM143 14zM139 51h137v-41h-137v41zM61 -32h895
v-40h-895v40zM770 513h136v-41h-136v41zM815 492h41v-466h-41v466zM774 10zM765 52h136v-41h-136v41zM561 513h136v-41h-136v41zM609 492h41v-466h-41v466zM565 10zM562 51h136v-41h-136v41z" />
    <glyph glyph-name="chuiziicon" unicode="&#xe65c;" horiz-adv-x="1030" 
d="M429 408q-7 4 -14 2t-10 -9l-6 -11q-4 -8 -2 -15.5t8 -11.5t13 -2t11 9l6 11q3 7 1.5 15t-7.5 12zM499 58h-337q-11 0 -18.5 -6t-7.5 -14.5t7.5 -14.5t18.5 -6h337q11 0 18.5 6t7.5 15q0 8 -7.5 14t-18.5 6zM887 270l-314 165l70 122q11 19 5.5 39.5t-24.5 31.5l-202 116
q-19 11 -39.5 5.5t-31.5 -24.5l-220 -381q-11 -19 -5.5 -39.5t24.5 -31.5l202 -116q18 -11 39 -5.5t32 24.5l70 122l303 -185q9 -6 19.5 -3t15.5 12l65 113q6 9 3 19t-12 16zM391 208q-6 -9 -17 -12.5t-21 2.5l-167 97q-10 6 -13 17t2 21l208 359q5 10 16 13t21 -3l168 -97
q10 -6 13 -17t-3 -20zM803 151l-291 178l45 81l301 -162zM519.5 548.5q-6.5 3.5 -14 1.5t-11.5 -8l-54 -89q-4 -6 -2 -13t8.5 -10.5t14 -1.5t11.5 8l54 89q3 6 1.5 13t-8 10.5z" />
    <glyph glyph-name="guankan-" unicode="&#xe612;" 
d="M512 56q-96 0 -197 51q-80 40 -159 111q-40 35 -78 77.5t-50.5 58.5t-18.5 25q-1 2 -1 5t1 5q6 9 18.5 25t50.5 58.5t78 77.5q79 71 159 111q101 51 197 51t197 -51q80 -40 159 -111q40 -35 78 -77.5t50.5 -58.5t18.5 -25q1 -2 1 -5t-1 -5q-6 -9 -18.5 -25t-50.5 -58.5
t-78 -77.5q-79 -71 -159 -111q-101 -51 -197 -51zM28 384q59 -81 140 -153q177 -157 344 -157t344 157q81 72 140 153q-59 81 -140 153q-177 157 -344.5 157t-343.5 -157q-81 -72 -140 -153zM499 141q-99 0 -169 70.5t-70 169.5t70 169t169 70t169 -70t70 -169t-70 -169.5
t-169 -70.5zM499.5 602q-91.5 0 -156.5 -65t-65 -156.5t65 -156.5t156.5 -65t156 65t64.5 156.5t-64.5 156.5t-156 65zM499 503q-36 0 -59 -16q3 2 5 3t4.5 1.5t4 0.5h5.5h6q28 0 47.5 -19.5t19.5 -47t-19.5 -47t-47 -19.5t-47 19.5t-19.5 46.5q0 16 2 23t10 15
q-34 -30 -34 -82q0 -51 35.5 -87t86.5 -36t87 36t36 86.5t-36 86.5t-87 36z" />
    <glyph glyph-name="chaxun1" unicode="&#xe63c;" horiz-adv-x="1045" 
d="M288 557h454v-58h-454v58zM288 672h454v-58h-454v58zM851 832h-678q-24 0 -41 -17t-17 -41v-774q0 -24 17 -41t41 -17h397v58h-397v774h678v-435h58v435q0 24 -17 41t-41 17zM710 122q45 44 45 128q0 81 -58.5 139.5t-140 58.5t-140 -58.5t-58.5 -140t58.5 -140
t140.5 -58.5q55 0 109 32l134 -128q10 -9 22 -9t16 9q10 10 10 22t-10 17zM556.5 109q-57.5 0 -99 41.5t-41.5 99t41.5 99t99 41.5t99.5 -41.5t42 -99t-42 -99t-99.5 -41.5zM410 448h-231v-58h173q29 44 58 58zM314 275q0 39 6 58h-141v-58h135z" />
    <glyph glyph-name="xiangmu" unicode="&#xe733;" 
d="M484 412h-281q-50 0 -85.5 35t-35.5 83v163q0 50 36 85.5t85 35.5h163q49 0 83.5 -35.5t34.5 -85.5v-281zM203 753q-25 0 -42.5 -17.5t-17.5 -42.5v-163q0 -24 17.5 -41t42.5 -17h221v221q0 25 -17 42.5t-41 17.5h-163zM823 412h-283v281q0 50 35.5 85.5t84.5 35.5h163
q49 0 83.5 -35.5t34.5 -85.5v-163q0 -49 -34.5 -83.5t-83.5 -34.5zM600 472h223q24 0 41 17t17 41v163q0 25 -17 42.5t-41 17.5h-163q-25 0 -42.5 -17.5t-17.5 -42.5v-221zM366 -45h-163q-50 0 -85.5 34.5t-35.5 84.5v162q0 50 36 85q35 35 85 35h281v-282q0 -50 -35 -84
q-34 -35 -83 -35zM203 296q-25 0 -42.5 -17.5t-17.5 -42.5v-162q0 -25 17.5 -42t42.5 -17h163q24 0 41 17t17 42v222h-221zM823 -45h-163q-50 0 -85 34.5t-35 84.5v282h283q49 0 83.5 -35t34.5 -85v-162q0 -50 -34.5 -84.5t-83.5 -34.5zM600 296v-222q0 -25 17.5 -42
t42.5 -17h163q24 0 41 17t17 42v162q0 25 -17 42.5t-41 17.5h-223z" />
    <glyph glyph-name="huzhengchaxun" unicode="&#xe60f;" 
d="M904 602l-3 21l-21 1q-4 0 -10 1t-20.5 6.5t-25.5 15t-21.5 28.5t-13.5 45l-2 15l-15 5q-254 94 -261 94h-7l-4 -2q-74 -28 -248 -92l-15 -5l-2 -15q-2 -25 -12.5 -44t-21.5 -28.5t-24.5 -15t-20.5 -7t-12 -1.5l-21 -1l-3 -21q0 -6 -1 -19t-1 -48t3.5 -71.5t14 -87
t26.5 -97t45 -98.5t67.5 -95.5t95.5 -83.5t126 -66l4 -2h24l4 2q69 26 126 66t95.5 83.5t67.5 95.5t45 98.5t26.5 97t14 87t3.5 71.5t-1 48t-1 19zM515 -16h-6q-244 95 -316 360q-31 114 -25 233q39 9 71.5 38.5t43.5 82.5q211 78 229 85q32 -12 229 -85q11 -53 43.5 -82.5
t71.5 -38.5q-1 -15 0.5 -38.5t-2.5 -56t-8.5 -68.5t-17 -76.5t-28.5 -80t-43 -79.5t-60 -75t-80 -66t-102 -53zM512 679l-80 -161l-178 -26l129 -126l-30 -177l159 84l159 -84l-30 177l129 126l-178 26z" />
    <glyph glyph-name="shengxu" unicode="&#xe610;" 
d="M952 647q2 3 5 8h-11q-3 -1 -3 -3l-0.5 -0.5l-0.5 -0.5q-18 3 -30 -14q-10 2 -18 -1q-18 -5 -18 -31q-4 5 -9 9q-21 24 -47 31q-119 28 -240.5 28t-239.5 -28q-5 -2 -9 -3q-47 -9 -62.5 -5.5t-46.5 10t-67 2.5q-29 -2 -55 -11q32 -54 55 -79q8 -8 17 -16.5t21 -18.5
l18 -15q-10 7 -32 19.5t-28 16.5q-46 -49 -72 -58q-3 4 -7 4q-8 0 -8 -10v-59h62q-11 -11 -29 -20q32 -10 55 -12q1 0 2.5 -0.5t2.5 -0.5q20 -51 59 -60q11 -3 27 -9t40 -16l36 -15l10 -5q55 -102 58 -133q0 -4 -4 -12.5t-9.5 -16.5t-10 -17t-4.5 -14.5t6 -8.5q9 -2 25 0.5
t26.5 5.5t12.5 4q-3 37 -1 40q3 8 14 0l-11 131q121 -18 243 -7q16 -15 36 -26q34 -18 66 -15q-1 -18 -5 -38t-8 -31l-3 -11q-3 -2 -5.5 -4.5t-10 -8.5t-12 -11.5t-10 -12.5t-5 -11.5t4.5 -8.5q3 -2 8.5 -3.5t11.5 -2t12 -0.5h12t10.5 0.5t7.5 1l3 0.5q1 4 2.5 10.5t2.5 10
t3.5 7.5t5.5 3.5t10 -2.5l50 147q0 6 -2.5 9t-6 4.5t-5.5 9t1 21.5q20 14 34.5 37.5t18.5 49.5q13 40 13 87q0 56 -18 100q1 0 1 1q-5 15 -6 32q-1 13 1 23q4 13 16 4q-5 -9 -4 -21.5t12 -10.5q23 2 17 24q-2 8 -10 13q3 7 7 12q3 3 8 -3q-4 -9 -1.5 -15.5t12.5 -4.5
t10.5 10.5t-7.5 14.5zM918 615q1 -2 1 -5q1 -2 0 -4q-1 3 -1 9z" />
    <glyph glyph-name="jiaqin" unicode="&#xe611;" 
d="M803 436q9 -16 -10.5 -47t-44.5 -40q4 -35 -7.5 -67t-30.5 -53t-42.5 -38t-38.5 -24t-23 -10q-3 0 -5 -1l5 -15t5.5 -15.5t2.5 -7.5q2 -5 5.5 -10t4.5 -8q2 -3 2 -9t2 -10q6 -13 25 -22q13 -6 17 -12q4 -5 1 -9q-1 3 -8 6.5t-14 5.5l-6 2q1 -2 2.5 -5.5t3.5 -10.5t1 -9
q0 -4 -14.5 -10t-16.5 -11q-1 -4 -1 -14q-9 7 -13 15q-4 13 7 20q-11 -2 -19 -5q-7 0 -19.5 -5t-15.5 -6l-21 -1q-1 0 -2.5 -1t-4 -4t-2.5 -7q-10 11 -4 20q7 10 25 13q9 2 13 1q3 0 10 2.5t12.5 5.5l5.5 3q-14 -3 -27 -7q-9 0 -10 1q-3 0 -3.5 -1.5t-3.5 -2.5v5q2 7 12 10
q6 2 14 3q5 1 20 2t18 2q1 0 -3 14t-10 32q-2 5 -10 24.5t-11 26.5q-6 0 -24 -1.5t-25 -2.5q-9 -14 -15 -34q-4 -12 -16 -15q-1 -11 -4 -33q-1 -3 -0.5 -9t0.5 -9t-2.5 -8t-2.5 -9q-1 -13 13 -27q10 -9 10 -16q1 -5 -4 -7q1 6 -20 20v0q-1 -20 -7 -23q-1 -3 -18.5 -4
t-22.5 -5q-2 -2 -4 -4.5t-3 -4.5l-1 -2q-1 1 -1.5 2.5l-2 6t-1.5 8.5q3 12 17 14v0l-21 2q-7 1 -20.5 1h-19.5q-5 1 -10.5 2t-8.5 2t-3 2q-11 0 -15 -9q-4 13 7 19t31 4q9 -2 13 -3q4 -2 11.5 -1.5t14.5 0.5l8 1l-30 2q-9 3 -10 4q-3 1 -4.5 0t-4.5 -1q1 2 3 4q5 6 17 5
q7 0 16 -1q5 -1 20 -4.5t19 -4.5q4 0 11 44q1 6 2 20.5t2 19.5q-13 -5 -23 -1t-14 28q-3 20 -13 35t-17 21.5t-26 20.5q-45 17 -83 49q-33 30 -48.5 60t-15.5 63.5t7 76.5q3 19 11.5 62.5t12.5 70t3 42.5q-3 -6 -19 -9q-8 -2 -12.5 2.5t-8 12.5t-5.5 10q-3 3 -4 7t-1 7v3
q-22 5 -34 1q-1 2 1 8.5t8.5 13.5t15.5 8q-12 5 -10.5 22t10.5 25q2 2 6.5 1.5t5.5 0t0 9.5q-3 10 13 12q5 1 8 -4q3 -6 3 -1v7q-1 8 8 13q7 4 10 -4q2 -6 4 0v1q3 7 9 10.5t12 -2.5q2 -2 6.5 -0.5t10 -0.5t6.5 -10q3 -19 -2 -34q3 -1 7 -3q2 -1 9.5 -5.5t12.5 -5.5
q21 -7 45 -41t28 -67q12 -61 35 -81q15 -9 43.5 -10t56 3.5t57.5 7t48 -0.5q14 9 30 30.5t25.5 41.5t19.5 42.5t11 23.5q9 16 22 23q19 11 27.5 -13t-0.5 -40q18 15 34 12q7 -12 7 -25t-5 -23q16 6 27 1q5 -12 0.5 -32.5t-14.5 -32.5q15 10 15 12q10 -19 -16 -66.5
t-59 -54.5q25 -1 32 6z" />
    <glyph glyph-name="qita" unicode="&#xe613;" 
d="M912 50h-577q-20 0 -34 14t-14 34v32q0 20 14 34t34 14h577q20 0 34 -14t14 -34v-32q0 -20 -14 -34t-34 -14zM912 307h-577q-20 0 -34 14t-14 34v32q0 20 14 34t34 14h577q20 0 34 -14t14 -34v-32q0 -20 -14 -34t-34 -14zM912 563h-577q-20 0 -34 14t-14 34v32
q0 20 14 34.5t34 14.5h577q20 0 34 -14.5t14 -34.5v-32q0 -20 -14 -34t-34 -14zM126.5 50q-26.5 0 -45.5 19t-19 45.5t19 45t45.5 18.5t45 -18.5t18.5 -45t-18.5 -45.5t-45 -19zM126.5 307q-26.5 0 -45.5 18.5t-19 45t19 45.5t45.5 19t45 -19t18.5 -45.5t-18.5 -45
t-45 -18.5zM126.5 563q-26.5 0 -45.5 19t-19 45.5t19 45.5t45.5 19t45 -19t18.5 -45.5t-18.5 -45.5t-45 -19z" />
    <glyph glyph-name="tutechan" unicode="&#xe614;" 
d="M526 616h54q-3 9 -3 27q0 49 30 86.5t76 46.5h2q12 0 19.5 7.5t7.5 19t-7.5 19.5t-19.5 8q-68 -11 -113.5 -64.5t-45.5 -124.5q-2 -3 -2 -7t1 -9.5t1 -8.5zM368 812q55 0 94 -25t39 -59t-39 -58.5t-94 -24.5t-94 24.5t-39 58.5t39 59t94 25zM670 596q-37 0 -158 -57
q-121 57 -160 57q-71 0 -121 -38t-72.5 -98.5t-22.5 -138.5q0 -30 7 -61q22 -138 126 -231t241 -93t240.5 92t125.5 230q10 41 10 63q1 77 -22 138t-73.5 99t-120.5 38zM404 465q-39 -21 -66 -56.5t-35 -80.5q0 -12 -7.5 -19.5t-19.5 -7.5t-19.5 7.5t-7.5 19.5v7
q10 59 46 106.5t89 73.5q4 2 11 2q12 0 19.5 -7.5t7.5 -19.5q3 -17 -18 -25z" />
    <glyph glyph-name="shougongyi" unicode="&#xe615;" 
d="M342 792l172 -278l168 272l-61 33q-1 -2 -4.5 -6t-14 -14t-22 -17.5t-29.5 -14t-37 -6.5q-30 0 -60 14.5t-45 29.5l-16 14zM763 743l-55 30l-194 -315l-197 320l-75 -40l271 -413zM891 674q-27 0 -48 -19l19 34l-74 40l-274 -459l-297 454l-65 -35l21 -35q-21 20 -50 20
q-30 0 -51 -21t-21 -51t21 -51.5t51 -21.5t51.5 21.5t21.5 51.5q0 10 -4 21l95 -155q-21 18 -48 18q-30 0 -51 -21.5t-21 -51.5t21 -51t51 -21t51.5 21t21.5 51q0 8 -3 18l77 -126q-15 7 -31 7q-30 0 -51 -21.5t-21 -51.5t21 -51t51 -21q29 0 50 20.5t22 49.5l79 -129
q-27 -3 -45.5 -23.5t-18.5 -48.5q0 -30 21 -51t51.5 -21t51.5 21t21 51q0 28 -19 48.5t-46 23.5l80 137q0 -1 -0.5 -3t-0.5 -3q0 -30 21.5 -51t51.5 -21t51 21t21 51t-21 51.5t-51 21.5q-21 0 -40 -12l69 117v-1.5v-2.5q0 -30 21 -51t51 -21t51.5 21t21.5 51t-21.5 51.5
t-51.5 21.5q-20 0 -38 -12l84 144q-2 -8 -2 -16q0 -30 21 -51.5t51 -21.5t51.5 21.5t21.5 51.5t-21.5 51t-51.5 21zM123 573q-12 0 -20.5 8.5t-8.5 20.5t8.5 20.5t20.5 8.5t20.5 -8.5t8.5 -20.5t-8.5 -20.5t-20.5 -8.5zM239 384q-12 0 -20.5 8.5t-8.5 20.5t8.5 20.5
t20.5 8.5t20.5 -8.5t8.5 -20.5t-8.5 -20.5t-20.5 -8.5zM355 210q-12 0 -20.5 8.5t-8.5 20.5t8.5 20.5t20.5 8.5t20.5 -8.5t8.5 -20.5t-8.5 -20.5t-20.5 -8.5zM543 36q0 -12 -8.5 -20.5t-20 -8.5t-20 8.5t-8.5 20.5t8.5 20.5t20 8.5t20 -8.5t8.5 -20.5zM674 268
q12 0 20.5 -8.5t8.5 -20.5t-8.5 -20.5t-20.5 -8.5t-20.5 8.5t-8.5 20.5t8.5 20.5t20.5 8.5zM775 442q12 0 20.5 -8.5t8.5 -20.5t-8.5 -20.5t-20.5 -8.5t-20.5 8.5t-8.5 20.5t8.5 20.5t20.5 8.5zM891 573q-12 0 -20.5 8.5t-8.5 20.5t8.5 20.5t20.5 8.5t20.5 -8.5t8.5 -20.5
t-8.5 -20.5t-20.5 -8.5z" />
    <glyph glyph-name="minshengjiandu" unicode="&#xe616;" 
d="M903 748q-9 0 -28.5 1t-68 6.5t-93 15t-96 29.5t-85.5 47l-13 11l-13 -11q-29 -24 -89 -48q-121 -48 -289 -52l-20 -1v-20q0 -93 8 -195q17 -217 64 -318h1q26 -53 80 -109q47 -50 104 -86q71 -45 152 -65l5 -1l6 2q53 17 119 54q57 33 102 73q56 49 89 105l1 1
q6 8 13.5 22t21 55.5t23.5 97t18 152t9 214.5v20h-21v0zM887 707q-3 -252 -38 -396q-18 -75 -38 -101v0l-1 -1l-2 -3q-56 -95 -179 -166q-54 -31 -107 -50l-1 -1l-2 1q-131 34 -230 137q-51 53 -76 102q-27 58 -43.5 166t-20.5 177.5t-5 132.5v6h5q98 4 181.5 24.5t121 38
t64.5 35.5l3 2l3 -2q85 -58 237 -83q82 -14 173 -15l-44 1l-1 -5v0zM537 367l-182 -1l201 283l-62 -231l182 -1l-216 -262z" />
    <glyph glyph-name="yasuobao" unicode="&#xe617;" 
d="M428 719h84v-56h-84v56zM344 663h84v-56h-84v56zM428 607h84v-56h-84v56zM344 551h84v-56h-84v56zM428 495h84v-56h-84v56zM344 439h84v-56h-84v56zM428 383v-56h-84v-196q0 -11 8 -19.5t20 -8.5h112q12 0 20 8.5t8 19.5v252h-84zM484 159h-112v56h112v-56zM855 657
l-125 125q-21 20 -56 34.5t-64 14.5h-420q-29 0 -49.5 -20.5t-20.5 -49.5v-756q0 -29 20.5 -49.5t49.5 -20.5h644q29 0 49.5 20.5t20.5 49.5v532q0 29 -14.5 64t-34.5 56v0zM815 617q4 -4 8 -10h-143v143q6 -4 10 -8zM848 5q0 -5 -4 -9.5t-10 -4.5h-644q-6 0 -10 4.5t-4 9.5
v756q0 6 4 10t10 4h420q6 0 14 -1v-223h223q1 -8 1 -14v-532v0z" />
    <glyph glyph-name="zixun" unicode="&#xe619;" 
d="M947 707q-8 41 -44 49h-3h-18q-1 1 -2 1h-31q-1 0 -2 -1h-2v0q-10 -1 -16.5 -8.5t-6.5 -17.5v-8q0 -10 6.5 -17.5t16.5 -8.5v0h3v0h1h31h0.5h0.5h6q1 -6 0 -11v-2v-638q-2 -28 -19 -42q-7 -6 -16 -8h-50v1q-28 1 -39 24q-6 14 -5 30v0v664q3 55 -27 84q-25 23 -60 21
h-527q-35 0 -57 -24q-28 -31 -24 -83v-662q-1 -27 11 -53q25 -58 96 -63h2h687q22 4 43 19q42 31 45 89l1 1v636q1 14 -1 28zM174 -5q-33 3 -44 25q-7 13 -6 28v0v667v1q-3 26 8 38q4 5 13 5h530q9 0 14 -5q9 -10 8 -38v0v-664q-1 -30 11 -57h-534v0zM631 663
q0 -13 -9.5 -22.5t-22.5 -9.5h-380q-13 0 -22.5 9.5t-9.5 22.5t9.5 22.5t22.5 9.5h380q13 0 22.5 -9.5t9.5 -22.5zM631 90zM630 486q0 -13 -9.5 -22.5t-22.5 -9.5h-380q-13 0 -22.5 9.5t-9.5 22.5t9.5 22.5t22.5 9.5h380q13 0 22.5 -9.5t9.5 -22.5zM630 312
q0 -13 -9.5 -22.5t-22.5 -9.5h-380q-13 0 -22.5 9.5t-9.5 22.5t9.5 22.5t22.5 9.5h380q13 0 22.5 -9.5t9.5 -22.5zM378 138q0 -13 -9.5 -22.5t-22.5 -9.5h-128q-13 0 -22.5 9.5t-9.5 22.5t9.5 22.5t22.5 9.5h128q13 0 22.5 -9.5t9.5 -22.5zM378 138z" />
    <glyph glyph-name="jiangbei" unicode="&#xe61f;" 
d="M907 654v13h-143l1 108q0 5 -4 5h-247q-1 0 -2 -1q-1 1 -2 1h-248q-4 0 -5 -5q-1 -47 2 -108h-142q-1 0 -1 -5v-48q0 -4 1 -4q3 -96 39 -171q39 -80 111 -133q60 -43 135 -62q40 -43 82 -54v-63q-2 -8 -5.5 -16t-15 -20.5t-29 -22t-50 -16.5t-75.5 -7h-19q-4 0 -4 -4v-48
q0 -4 4 -4h444q4 0 4 4v48q0 4 -4 4h-19q-49 0 -85 9t-52.5 20t-26 25t-10.5 19.5t-1 9.5v9v53q41 11 81 54q76 19 136 62q72 53 111 133q42 86 39 215zM207 464q-31 63 -34 146h89q3 -25 6 -46q26 -150 75 -238q-91 46 -136 138zM817 464q-45 -92 -137 -139q49 88 75 239
q3 21 5 46h91q-3 -83 -34 -146zM817 464z" />
    <glyph glyph-name="minshengwuzi" unicode="&#xe61c;" 
d="M285 640q25 -5 48.5 -15t49.5 -28t44.5 -49.5t25.5 -72.5q-25 5 -48.5 14.5t-49 27.5t-44.5 49.5t-26 73.5zM237 689q0 -54 15 -97t36.5 -70t51.5 -46.5t55 -29t52.5 -14.5t37.5 -5.5t16 -0.5q0 53 -15 97t-37 70.5t-52 46t-55 28.5t-52.5 14.5t-37 6t-15.5 0.5zM716 641
q-5 -25 -15 -48.5t-28 -49t-49.5 -44t-73.5 -25.5q5 25 15 48t28 49t49.5 44.5t73.5 25.5zM765 689q-54 0 -97.5 -14.5t-70.5 -38t-46.5 -51.5t-29 -56t-14 -51t-5.5 -37.5l-1 -14.5q179 0 241 152q23 58 23 111zM242 421q30 -4 59 -13.5t62 -27.5t57 -50.5t33 -74.5
q-30 4 -59 13.5t-62 27.5t-57 50.5t-33 74.5zM193 470q0 -54 17.5 -97.5t42.5 -70t60.5 -46t64.5 -29t61 -14.5t43.5 -5.5t19.5 -0.5q0 53 -17 96.5t-44.5 70.5t-60.5 46.5t-65.5 28.5t-60 14.5t-44.5 5.5zM760 423q-7 -26 -19 -49.5t-34.5 -50t-62 -45t-91.5 -25.5
q16 63 56 104q55 55 151 66v0zM810 470q-63 0 -114 -14.5t-82.5 -38t-54.5 -51.5t-34 -56t-16.5 -51t-6.5 -37.5t0 -14.5q208 0 280 152q28 58 28 111zM112 204q35 -3 69 -8.5t80 -18t81.5 -30t66 -47t41.5 -66.5q-35 3 -69 8t-79.5 17.5t-81.5 30t-66.5 47.5t-41.5 67z
M62 250q0 -53 24.5 -96.5t60.5 -70t86 -46.5t91 -29t86.5 -14.5t62.5 -6t27 -0.5q0 54 -25 97.5t-61 70t-86.5 46.5t-92.5 29t-87 14t-61 5.5t-25 0.5v0zM885 205q-8 -21 -20.5 -40t-38.5 -42.5t-60.5 -41t-89.5 -31.5t-122 -18q23 60 75 96q24 28 93.5 50t162.5 27v0z
M939 250q-71 0 -131 -9t-102 -24t-76 -35t-55 -41.5t-36.5 -43.5t-22.5 -41.5t-11 -35t-4 -24.5l-1 -9q90 0 162.5 15t117 37t77.5 52t48 55t23.5 52.5t9.5 37t1 14.5v0zM456 470h88v-527h-88v527zM499 751q18 -29 28 -57q29 -88 -24 -166q-39 60 -39 118q0 55 35 105v0z
M500 821q-37 -37 -57 -77t-22 -74.5t4 -67.5t18.5 -58.5t25.5 -45t22 -29.5t10 -10q37 37 57 76.5t22 74t-4 67.5t-18.5 58.5t-25.5 45t-22 30t-10 10.5z" />
    <glyph glyph-name="xinxifabu" unicode="&#xe623;" horiz-adv-x="1509" 
d="M538 -24q-69 0 -119 48t-54 117v0v485v0q4 69 54 117t119 48h336v0h1l-57 -48h-280q-52 0 -88.5 -37t-36.5 -88v-469q0 -51 36.5 -88t88.5 -37h430q51 0 87.5 37t36.5 88v324l48 48v-380v0q-3 -69 -53 -117t-119 -48h-430v0zM609 214q-6 0 -8 2q-3 4 -1 16q1 9 5 24
q4 13 10 33q5 18 9 32q5 14 7 18l1 1q3 8 7 14.5t11 14.5q6 5 15 15l2 2q4 5 31 32q21 22 26 27l42 44l48 50l114 119l98 -99l-116 -123l-47 -49l-8 -8l-8 -8q-42 -43 -51 -53q-15 -15 -31 -32q-11 -12 -13 -14h-1q-6 -6 -13 -12q-6 -5 -14 -8v0q-7 -4 -23 -10
q-15 -6 -33 -12q-16 -6 -32 -10t-22 -5q-3 -1 -5 -1zM978 711q7 7 15 14q11 11 19 18q9 7 18 10t17 3h2q5 0 9 -1v0q21 -4 39 -21q9 -10 15 -21q9 -16 8 -31v-1v-2v-2q0 -8 -3 -17q-3 -8 -10 -16l-15 -15q-7 -8 -12 -13l-4 -4z" />
  </font>
</defs>
</svg>
